<?xml version="1.0" encoding="UTF-8" standalone="no"?>
<!-- Created with Inkscape (http://www.inkscape.org/) -->

<svg
   xmlns:dc="http://purl.org/dc/elements/1.1/"
   xmlns:cc="http://creativecommons.org/ns#"
   xmlns:rdf="http://www.w3.org/1999/02/22-rdf-syntax-ns#"
   xmlns:svg="http://www.w3.org/2000/svg"
   xmlns="http://www.w3.org/2000/svg"
   xmlns:sodipodi="http://sodipodi.sourceforge.net/DTD/sodipodi-0.dtd"
   xmlns:inkscape="http://www.inkscape.org/namespaces/inkscape"
   width="1052.3622"
   height="744.09448"
   id="svg2"
   version="1.1"
   inkscape:version="0.48.3.1 r9886"
   sodipodi:docname="ocaml.svg">
  <defs
     id="defs4">
    <filter
       id="filter4470"
       inkscape:label="Black outline"
       inkscape:menu="ABCs"
       inkscape:menu-tooltip="Draws a black outline around"
       height="1.1"
       width="1.1"
       y="-0.05"
       x="-0.05"
       color-interpolation-filters="sRGB">
      <feGaussianBlur
         id="feGaussianBlur4472"
         stdDeviation="1"
         result="result1" />
      <feComposite
         id="feComposite4474"
         in2="result1"
         in="result1"
         result="result4"
         operator="in" />
      <feBlend
         id="feBlend4476"
         in2="result4"
         in="result1"
         mode="screen"
         result="result5" />
      <feGaussianBlur
         id="feGaussianBlur4478"
         stdDeviation="8"
         result="result6"
         in="result5" />
      <feComposite
         id="feComposite4480"
         in2="result5"
         operator="atop"
         in="result6"
         result="result8" />
      <feComposite
         id="feComposite4482"
         in2="result8"
         operator="in"
         result="fbSourceGraphic"
         in="result6" />
      <feGaussianBlur
         id="feGaussianBlur4484"
         result="result0"
         in="fbSourceGraphic"
         stdDeviation="2.5" />
      <feSpecularLighting
         id="feSpecularLighting4486"
         specularExponent="45"
         specularConstant="1.5"
         surfaceScale="1"
         lighting-color="rgb(255,255,255)"
         result="result1"
         in="result0">
        <fePointLight
           id="fePointLight4488"
           z="21000"
           y="-9000"
           x="-6000" />
      </feSpecularLighting>
      <feComposite
         id="feComposite4490"
         in2="fbSourceGraphic"
         operator="in"
         result="result2"
         in="result1" />
      <feComposite
         id="feComposite4492"
         in2="result2"
         k3="1"
         k2="1"
         operator="arithmetic"
         result="result4"
         in="fbSourceGraphic" />
      <feComposite
         id="feComposite4494"
         in2="result4"
         operator="in"
         in="result9"
         result="result91" />
      <feBlend
         id="feBlend4496"
         in2="result91"
         mode="multiply"
         result="fbSourceGraphic" />
      <feColorMatrix
         result="fbSourceGraphicAlpha"
         in="fbSourceGraphic"
         values="0 0 0 -1 0 0 0 0 -1 0 0 0 0 -1 0 0 0 0 1 0"
         id="feColorMatrix4852" />
      <feGaussianBlur
         id="feGaussianBlur4854"
         stdDeviation="2"
         in="fbSourceGraphicAlpha"
         result="result0" />
      <feComposite
         id="feComposite4856"
         in2="result0"
         result="result3"
         operator="arithmetic"
         in="fbSourceGraphic"
         k2="1"
         k3="10" />
      <feComposite
         id="feComposite4858"
         in2="result3"
         k2="1"
         operator="in"
         in="result3"
         result="result4" />
    </filter>
  </defs>
  <sodipodi:namedview
     id="base"
     pagecolor="#ffffff"
     bordercolor="#666666"
     borderopacity="1.0"
     inkscape:pageopacity="0.0"
     inkscape:pageshadow="2"
     inkscape:zoom="1.4"
     inkscape:cx="474.74063"
     inkscape:cy="400"
     inkscape:document-units="px"
     inkscape:current-layer="layer1"
     showgrid="false"
     inkscape:window-width="1914"
     inkscape:window-height="725"
     inkscape:window-x="0"
     inkscape:window-y="221"
     inkscape:window-maximized="0" />
  <metadata
     id="metadata7">
    <rdf:RDF>
      <cc:Work
         rdf:about="">
        <dc:format>image/svg+xml</dc:format>
        <dc:type
           rdf:resource="http://purl.org/dc/dcmitype/StillImage" />
        <dc:title></dc:title>
      </cc:Work>
    </rdf:RDF>
  </metadata>
  <g
     inkscape:label="Calque 1"
     inkscape:groupmode="layer"
     id="layer1"
     transform="translate(0,-308.2677)">
    <g
       style="font-size:64px;font-style:normal;font-variant:normal;font-weight:normal;font-stretch:normal;text-align:start;line-height:125%;letter-spacing:0px;word-spacing:0px;writing-mode:lr-tb;text-anchor:start;fill:#e79f55;fill-opacity:1;stroke:#fafa09;stroke-width:3.99999951999999981;stroke-miterlimit:4;stroke-opacity:1;font-family:Courgette;-inkscape-font-specification:Courgette;filter:url(#filter4470)"
       id="text2985"
       inkscape:export-filename="/home/guesdon/devel/form-ocaml/ocaml.png"
       inkscape:export-xdpi="160.44"
       inkscape:export-ydpi="160.44">
      <path
         d="m 309.7442,660.68536 c 0.18749,-5.62496 1.05468,-11.5312 2.60156,-17.71875 1.59374,-6.23432 3.74999,-12.23431 6.46875,-18 2.71873,-5.76555 5.92967,-11.1796 9.63282,-16.24218 3.74997,-5.06241 7.85152,-9.46866 12.30468,-13.21875 9.56245,-8.0624 19.59369,-12.09364 30.09375,-12.09375 12.74992,1.1e-4 21.07023,5.78916 24.96094,17.36718 1.40616,4.07822 2.01553,9.11727 1.82813,15.11719 -0.14072,5.9532 -1.05479,12.0235 -2.74219,18.21094 -1.64072,6.18755 -3.89072,12.16411 -6.75,17.92969 -2.81259,5.76566 -6.11727,11.17971 -9.91406,16.24218 -3.79695,5.01565 -7.92195,9.37502 -12.375,13.07813 -9.51568,8.0625 -19.0313,12.09375 -28.54688,12.09375 -8.53128,0 -15.30471,-2.78906 -20.32031,-8.36719 -5.10939,-5.71874 -7.52345,-13.85154 -7.24219,-24.39844 m 22.92188,-27 c -2.39066,5.43756 -4.33597,10.99224 -5.83594,16.66407 -1.45315,5.67191 -2.25002,10.50003 -2.39063,14.48437 -0.0938,3.93753 0.14061,7.00783 0.70313,9.21094 0.60935,2.15627 1.4531,3.98439 2.53125,5.48437 2.24997,3.18751 5.13278,4.78126 8.64844,4.78125 3.56246,1e-5 7.12495,-1.14842 10.6875,-3.44531 3.56245,-2.29686 7.00776,-5.36717 10.33593,-9.21094 3.37494,-3.84372 6.56244,-8.2734 9.5625,-13.28906 3.04681,-5.01558 5.71868,-10.24214 8.01563,-15.67969 6.65617,-15.79681 9.09367,-28.82804 7.3125,-39.09375 -1.21883,-7.1249 -5.10945,-10.6874 -11.67188,-10.6875 -6.00006,1e-4 -12.67974,4.07822 -20.03906,12.23438 -6.93754,7.59383 -12.89066,17.10944 -17.85937,28.54687"
         style="font-size:144px;fill:#e79f55;stroke:#fafa09;fill-opacity:1;stroke-opacity:1"
         id="path3758" />
      <path
         d="m 402.41608,663.21661 0.0703,-2.03906 c 0.51562,-14.01558 4.05468,-27.25775 10.61719,-39.72656 6.04685,-11.39054 13.66403,-20.60147 22.85156,-27.63281 9.0937,-6.9374 17.95307,-10.40614 26.57812,-10.40625 6.56243,1.1e-4 11.74211,2.27354 15.53907,6.82031 3.23429,3.9376 4.85147,8.76572 4.85156,14.48437 -9e-5,6.84383 -2.5079,13.59383 -7.52344,20.25 -2.90633,3.84382 -6.00007,6.60944 -9.28125,8.29688 -1.54694,0.84381 -3.00007,1.26568 -4.35937,1.26562 -1.31257,6e-5 -2.53132,-0.28119 -3.65625,-0.84375 -1.12506,-0.56244 -2.10944,-1.26556 -2.95313,-2.10937 -1.73443,-1.82806 -2.60162,-3.46869 -2.60156,-4.92188 -6e-5,-1.45305 0.37494,-2.46087 1.125,-3.02343 7.68743,-5.53118 12.91399,-11.22649 15.67969,-17.08594 1.07805,-2.24991 1.61711,-4.45304 1.61718,-6.60938 -7e-5,-4.54677 -2.15632,-6.82021 -6.46875,-6.82031 -6.75006,10e-5 -13.71099,3.67978 -20.88281,11.03906 -6.70316,6.79696 -12.32816,15.3282 -16.875,25.59375 -4.7344,10.54693 -7.24221,20.22661 -7.52344,29.03907 l -0.0703,2.67187 c -2e-5,10.5469 2.22654,17.46095 6.67969,20.74219 1.59372,1.17188 3.49215,1.75782 5.69531,1.75781 2.24996,10e-6 4.35934,-0.28124 6.32813,-0.84375 1.9687,-0.56249 3.93745,-1.33593 5.90625,-2.32031 3.18745,-1.64061 7.26557,-4.47655 12.23437,-8.50781 1.49994,-1.17186 2.74213,-1.00779 3.72656,0.49218 0.84369,1.21877 1.26556,2.62502 1.26563,4.21875 -7e-5,2.67189 -0.37507,4.50002 -1.125,5.48438 -0.70319,0.93751 -1.94538,2.06251 -3.72656,3.375 -1.73444,1.3125 -3.86725,2.53125 -6.39844,3.65625 -5.9063,2.625 -11.69536,3.9375 -17.36719,3.9375 -5.6719,0 -10.24221,-0.67969 -13.71094,-2.03906 -3.46877,-1.40625 -6.39845,-3.39844 -8.78906,-5.97657 -4.96876,-5.43748 -7.45313,-12.84373 -7.45312,-22.21875"
         style="font-size:144px;fill:#e79f55;stroke:#fafa09;fill-opacity:1;stroke-opacity:1"
         id="path3760" />
      <path
         d="m 531.65045,674.04474 c -6e-5,4.31251 1.52338,6.46876 4.57031,6.46875 2.10931,10e-6 3.84369,-0.32811 5.20313,-0.98438 1.40618,-0.65623 2.34368,-0.98436 2.8125,-0.98437 0.9843,10e-6 1.47649,0.51564 1.47656,1.54687 -7e-5,4.03126 -2.10944,7.50001 -6.32812,10.40625 -4.45319,3.04688 -9.00006,3.79688 -13.64063,2.25 -3.04692,-1.07812 -5.29692,-3.39843 -6.75,-6.96093 -0.70317,-1.82812 -1.05473,-3.49218 -1.05469,-4.99219 -4e-5,-2.43749 0.23433,-5.01561 0.70313,-7.73438 -4.35942,8.90626 -9.77347,15.04688 -16.24219,18.42188 -2.57815,1.3125 -5.32034,1.96875 -8.22656,1.96875 -2.90627,0 -5.43752,-0.58594 -7.59375,-1.75781 -2.10939,-1.21875 -3.91407,-2.88281 -5.41406,-4.99219 -3.04688,-4.40624 -4.4297,-9.93749 -4.14844,-16.59375 0.28124,-8.34372 2.74218,-16.5234 7.38281,-24.53906 4.26561,-7.49995 9.65623,-13.61713 16.17188,-18.35157 6.51559,-4.82805 12.60933,-7.24211 18.28125,-7.24218 5.67182,7e-5 10.24213,2.60163 13.71093,7.80468 3.23432,-5.20305 6.09369,-7.80461 8.57813,-7.80468 2.6718,7e-5 4.68743,0.49226 6.04687,1.47656 2.57805,1.87507 3.49211,3.51569 2.74219,4.92187 -11.76569,24.0938 -17.81256,39.09378 -18.14062,45 -0.0938,0.84377 -0.14069,1.7344 -0.14063,2.67188 m -39.02344,0.28125 c -2e-5,5.62501 1.80467,8.43751 5.41407,8.4375 2.76559,10e-6 6.16403,-2.34374 10.19531,-7.03125 5.90621,-6.8906 11.13276,-16.17184 15.67969,-27.84375 1.45307,-3.6562 2.67182,-7.31245 3.65625,-10.96875 -0.18756,-3.18744 -1.52349,-5.53119 -4.00782,-7.03125 -0.8438,-0.51556 -2.10942,-0.77338 -3.79687,-0.77344 -1.64067,6e-5 -3.58598,0.60944 -5.83594,1.82813 -2.20316,1.21881 -4.35941,2.88287 -6.46875,4.99218 -2.06253,2.10943 -4.00784,4.61724 -5.83594,7.52344 -1.78127,2.85942 -3.35158,5.97661 -4.71093,9.35156 -2.8594,7.21879 -4.28909,14.39065 -4.28907,21.51563"
         style="font-size:144px;fill:#e79f55;stroke:#fafa09;fill-opacity:1;stroke-opacity:1"
         id="path3762" />
      <path
         d="m 608.29108,633.26349 c -2.71881,6e-5 -7.68755,3.93755 -14.90625,11.8125 -5.39067,6.14067 -9.30472,10.75785 -11.74219,13.85156 l -6.32813,8.01563 c -2.71877,5.15627 -4.85158,9.44533 -6.39843,12.86718 l -3.79688,8.15625 c -0.98439,2.01563 -1.85157,3.44532 -2.60156,4.28907 -0.70314,0.79687 -1.68751,1.19531 -2.95313,1.19531 -1.21875,0 -2.41407,-0.23438 -3.58593,-0.70313 -1.12501,-0.42187 -2.10938,-0.98437 -2.95313,-1.6875 -1.78125,-1.49999 -2.67187,-3.14062 -2.67187,-4.92187 0,-0.70312 0.51562,-2.08593 1.54687,-4.14844 l 2.67188,-5.69531 c 0.84374,-1.68748 1.82812,-3.84373 2.95312,-6.46875 l 3.9375,-9.63281 c 5.53123,-13.82808 8.29686,-22.75776 8.29688,-26.78907 -2e-5,-2.15618 -0.70315,-3.74993 -2.10938,-4.78125 l -1.40625,-0.98437 c -0.46876,-0.32806 -0.70314,-0.89056 -0.70312,-1.6875 -2e-5,-0.84368 0.30467,-1.64056 0.91406,-2.39063 0.65623,-0.74993 1.49998,-1.40618 2.53125,-1.96875 2.10935,-1.07805 4.21873,-1.61711 6.32812,-1.61718 2.15623,7e-5 3.84373,0.23444 5.0625,0.70312 1.21872,0.46882 2.27341,1.10163 3.16407,1.89844 1.78121,1.64069 2.67184,3.35163 2.67187,5.13281 -3e-5,1.78131 -0.23441,3.586 -0.70312,5.41406 -0.46879,1.78131 -1.05473,3.60943 -1.75782,5.48438 -0.70315,1.82818 -1.45315,3.60942 -2.25,5.34375 -1.87503,4.03129 -3.0469,6.51567 -3.51562,7.45312 -0.4219,0.89067 -0.53909,1.21879 -0.35156,0.98438 8.57809,-11.10932 13.73433,-17.67182 15.46875,-19.6875 3.60933,-4.17181 6.42182,-7.03118 8.4375,-8.57813 3.70307,-2.76555 7.19525,-4.14836 10.47656,-4.14843 3.32806,7e-5 5.97649,1.03132 7.94531,3.09375 1.96868,2.06256 2.95305,4.78131 2.95313,8.15625 -8e-5,2.95318 -0.75008,6.42193 -2.25,10.40625 -1.50007,3.98442 -2.50788,6.77348 -3.02344,8.36718 l 10.33594,-13.64062 5.76562,-6.89063 c 3.46866,-3.89055 6.51554,-6.44524 9.14063,-7.66406 2.6249,-1.21868 4.75771,-1.82805 6.39843,-1.82812 1.6874,7e-5 3.32803,0.30476 4.92188,0.91406 1.64052,0.60945 3.02333,1.47663 4.14844,2.60156 2.39051,2.29694 3.58582,5.34382 3.58593,9.14063 -1.1e-4,3.6563 -0.84386,7.4063 -2.53125,11.25 -1.6876,3.84379 -3.16416,7.00785 -4.42968,9.49218 -1.26573,2.43754 -2.48448,4.89848 -3.65625,7.38282 -3.42198,7.45315 -5.13291,12.98439 -5.13282,16.59375 -9e-5,2.53126 1.03116,3.79688 3.09375,3.79687 1.96865,10e-6 3.7499,-0.42186 5.34375,-1.26562 1.64052,-0.84374 2.69521,-1.26561 3.16407,-1.26563 0.98426,2e-5 1.47645,0.4922 1.47656,1.47656 -1.1e-4,4.17189 -2.13292,7.66407 -6.39844,10.47657 -2.85947,1.92187 -5.48447,2.88281 -7.875,2.88281 -2.34384,0 -4.24228,-0.28125 -5.69531,-0.84375 -1.45321,-0.5625 -2.76571,-1.45312 -3.9375,-2.67188 -2.62508,-2.71874 -3.93758,-6.11717 -3.9375,-10.19531 -8e-5,-4.07811 0.51554,-7.8281 1.54687,-11.25 1.03117,-3.42185 2.24992,-6.72653 3.65625,-9.91406 1.40617,-3.23434 2.81241,-6.18746 4.21875,-8.85938 1.45304,-2.7187 2.5546,-4.87495 3.30469,-6.46875 1.49991,-3.28119 2.24991,-5.69525 2.25,-7.24218 -9e-5,-1.82807 -0.96103,-2.74213 -2.88281,-2.74219 -2.53134,6e-5 -7.07821,4.19537 -13.64063,12.58594 -4.96882,6.51566 -8.41413,11.20316 -10.33593,14.0625 l -4.85157,7.03125 c -2.71881,5.15627 -4.80474,9.44533 -6.25781,12.86718 l -3.58594,8.15625 c -0.89067,2.01563 -1.66411,3.44532 -2.32031,4.28907 -0.6563,0.79687 -1.57036,1.19531 -2.74219,1.19531 -1.17192,0 -2.32036,-0.1875 -3.44531,-0.5625 -1.07817,-0.375 -2.01567,-0.86719 -2.8125,-1.47656 -1.82816,-1.35938 -2.74223,-2.78906 -2.74219,-4.28907 -4e-5,-1.54686 0.49215,-3.6328 1.47657,-6.25781 1.0312,-2.67186 2.29683,-5.64842 3.79687,-8.92969 l 9.84375,-20.8125 c 3.51557,-7.73432 5.27338,-12.63275 5.27344,-14.69531 -6e-5,-2.10932 -0.961,-3.164 -2.88281,-3.16406 m 6.96093,19.82812 c 0.0468,4e-5 0.0702,-0.0234 0.0703,-0.0703 l 0.0703,-0.14062 c -0.0938,0.0938 -0.14069,0.1641 -0.14063,0.21093"
         style="font-size:144px;fill:#e79f55;stroke:#fafa09;fill-opacity:1;stroke-opacity:1"
         id="path3764" />
      <path
         d="m 676.00201,689.93536 c -1.17188,-1.21874 -2.13281,-2.76562 -2.88281,-4.64062 -0.70313,-1.92187 -1.05469,-4.12499 -1.05469,-6.60938 0,-2.53123 0.5625,-5.90623 1.6875,-10.125 1.17187,-4.21872 2.64843,-9.0234 4.42969,-14.41406 l 5.90625,-17.50781 c 8.3906,-24.37492 13.24216,-43.21865 14.55469,-56.53125 0.42184,-3.93738 2.34372,-5.90613 5.76562,-5.90625 2.15622,1.2e-4 3.93746,0.51574 5.34375,1.54687 2.71871,2.06262 4.03121,4.35949 3.9375,6.89063 -0.0938,2.53136 -0.5391,5.6251 -1.33593,9.28125 -0.79692,3.60947 -1.82817,7.5704 -3.09375,11.88281 -1.26567,4.26571 -2.71879,8.78914 -4.35938,13.57031 l -9.70312,28.54688 c -5.57815,16.21878 -8.36721,26.69533 -8.36719,31.42969 -2e-5,2.53126 1.03123,3.79688 3.09375,3.79687 1.96872,10e-6 3.74997,-0.42186 5.34375,-1.26562 1.64059,-0.84374 2.69528,-1.26561 3.16406,-1.26563 0.98434,2e-5 1.47653,0.4922 1.47656,1.47656 -3e-5,4.17189 -2.13284,7.66407 -6.39843,10.47657 -2.8594,1.92187 -5.4844,2.88281 -7.875,2.88281 -2.34377,0 -4.2422,-0.28125 -5.69532,-0.84375 -1.45313,-0.5625 -2.76563,-1.45312 -3.9375,-2.67188"
         style="font-size:144px;fill:#e79f55;stroke:#fafa09;fill-opacity:1;stroke-opacity:1"
         id="path3766" />
    </g>
  </g>
</svg>
